<?xml version="1.0" encoding="utf-8"?>
<!-- Generator: Adobe Illustrator 17.1.0, SVG Export Plug-In . SVG Version: 6.00 Build 0)  -->
<!DOCTYPE svg PUBLIC "-//W3C//DTD SVG 1.1//EN" "http://www.w3.org/Graphics/SVG/1.1/DTD/svg11.dtd">
<svg version="1.1" id="Layer_1" xmlns="http://www.w3.org/2000/svg" xmlns:xlink="http://www.w3.org/1999/xlink" x="0px" y="0px"
	 viewBox="0 0 25 25" enable-background="new 0 0 25 25" xml:space="preserve">
<g>
	<path d="M18.3,16.8h-12v-5.6c0.1,0,0.3,0,0.4,0c0.3,0,0.6-0.1,0.9-0.2c0.3-0.1,0.6-0.3,0.9-0.7l1.3,0.3c0.3,0.1,0.5,0.3,0.8,0.6
		c0.2,0,0.4,0,0.6,0c0.4,0,0.8-0.1,1.1-0.2c0.3-0.1,0.6-0.3,0.9-0.7l1.3,0.3c0.3,0.1,0.5,0.3,0.8,0.6V9.7h-1.2
		c-0.1,0-0.3-0.1-0.4-0.2S13.5,9.2,13.5,9V7.2c0-0.3,0.1-0.5,0.4-0.5c0.3,0,0.4,0.2,0.4,0.5v1.5c0,0.3,0.2,0.4,0.5,0.4h0.5V6.1
		c0-0.3,0.1-0.5,0.4-0.5c0.2,0,0.4,0.2,0.4,0.5v3.7h0.3c0.2,0,0.4-0.1,0.4-0.4V8.5C16.6,8.2,16.7,8,17,8c0.2,0,0.4,0.2,0.4,0.5v1.3
		c0,0.2-0.1,0.3-0.2,0.4s-0.3,0.2-0.4,0.2H16v0.8h2.3V16.8z M11.1,7.6c0,0.5-0.2,0.9-0.5,1.3S9.8,9.4,9.3,9.4C8.8,9.4,8.4,9.2,8,8.9
		S7.5,8.1,7.5,7.6S7.7,6.7,8,6.4s0.8-0.5,1.3-0.5c0.5,0,0.9,0.2,1.3,0.5S11.1,7.1,11.1,7.6z M8.8,11.3c0,0,0-0.1,0-0.1
		c0-0.2-0.1-0.5-0.3-0.7c0,0.2,0.1,0.3,0.1,0.5c0,0.1,0,0.3-0.1,0.4C8.4,11.7,8,11.9,7.6,12c0.2,0,0.4-0.1,0.6-0.1
		C8.5,11.8,8.7,11.6,8.8,11.3z M13.4,11.3c0,0,0-0.1,0-0.1c0-0.2-0.1-0.5-0.3-0.7c0,0.2,0.1,0.3,0.1,0.5c0,0.1,0,0.3-0.1,0.4
		c-0.1,0.3-0.4,0.5-0.9,0.6c0.2,0,0.4-0.1,0.6-0.1C13.2,11.8,13.4,11.6,13.4,11.3z"/>
</g>
</svg>
